<svg width="36" height="36" viewBox="0 0 36 36" fill="none" xmlns="http://www.w3.org/2000/svg">
<g clip-path="url(#clip0_865_4616)">
<path d="M26 0H10C4.47715 0 0 4.47715 0 10V26C0 31.5228 4.47715 36 10 36H26C31.5228 36 36 31.5228 36 26V10C36 4.47715 31.5228 0 26 0Z" fill="black" fill-opacity="0.5"/>
<path fill-rule="evenodd" clip-rule="evenodd" d="M10.2741 5.70003C10.0473 5.32334 10.1819 4.84168 10.5748 4.6242C10.9677 4.40672 11.4699 4.53578 11.6967 4.91246L13.441 7.80926C13.4637 7.81318 13.4865 7.81803 13.5091 7.82386L17.5229 8.85532C17.9611 8.96791 18.2212 9.39988 18.1037 9.82004C17.9864 10.2402 17.536 10.4895 17.0978 10.3769L13.4738 9.44558L12.5037 12.9179C12.3863 13.3381 11.9358 13.5874 11.4977 13.4748C11.0594 13.3622 10.7994 12.9303 10.9168 12.5101L11.992 8.66144C11.9988 8.63761 12.0065 8.61433 12.0152 8.59158L10.2741 5.70003ZM18.7818 18.2687C20.3647 17.3924 20.907 15.4514 19.993 13.9334C19.0789 12.4153 17.0546 11.8951 15.4717 12.7714C13.8886 13.6478 13.3464 15.5887 14.2604 17.1068C15.1745 18.6248 17.1987 19.145 18.7818 18.2687ZM17.9258 16.8776C18.7089 16.444 18.9773 15.4837 18.525 14.7327C18.0728 13.9817 17.0713 13.7243 16.2882 14.1578C15.5049 14.5914 15.2367 15.5516 15.6889 16.3026C16.1411 17.0538 17.1426 17.3111 17.9258 16.8776ZM13.1141 17.7553C14.028 19.2734 13.4858 21.2143 11.9028 22.0907C10.3199 22.967 8.29565 22.4468 7.38156 20.9287C6.46752 19.4107 7.0098 17.4697 8.59278 16.5934C10.1757 15.7171 12.2 16.2373 13.1141 17.7553ZM11.6333 18.5274C12.0854 19.2785 11.8172 20.2387 11.0339 20.6723C10.2508 21.1059 9.24939 20.8485 8.7971 20.0975C8.34492 19.3465 8.6132 18.3861 9.39643 17.9526C10.1795 17.5191 11.181 17.7764 11.6333 18.5274ZM19.3532 26.352C20.9361 25.4757 21.4784 23.5347 20.5644 22.0167C19.6503 20.4986 17.626 19.9785 16.0431 20.8548C14.46 21.7311 13.9178 23.6721 14.8318 25.1901C15.7459 26.7081 17.7702 27.2283 19.3532 26.352ZM18.4717 24.925C19.2548 24.4914 19.5231 23.5312 19.0709 22.7802C18.6186 22.0292 17.6171 21.7717 16.8341 22.2052C16.0508 22.6389 15.7826 23.5991 16.2347 24.3501C16.687 25.1011 17.6884 25.3586 18.4717 24.925ZM27.4665 26.2523C28.3806 27.7704 27.8382 29.7113 26.2553 30.5876C24.6723 31.4639 22.648 30.9438 21.7339 29.4257C20.8199 27.9077 21.3622 25.9668 22.9452 25.0904C24.5281 24.2141 26.5525 24.7343 27.4665 26.2523ZM25.9967 27.0416C26.4489 27.7927 26.1806 28.753 25.3975 29.1865C24.6143 29.62 23.6129 29.3627 23.1606 28.6117C22.7084 27.8607 22.9768 26.9003 23.7599 26.4668C24.543 26.0332 25.5445 26.2905 25.9967 27.0416ZM26.2573 22.53C27.8403 21.6536 28.3825 19.7127 27.4684 18.1947C26.5544 16.6767 24.5302 16.1565 22.9472 17.0328C21.3642 17.9091 20.822 19.8501 21.7359 21.3681C22.65 22.8862 24.6743 23.4063 26.2573 22.53ZM25.4316 21.1303C26.2149 20.6967 26.4831 19.7365 26.0308 18.9855C25.5787 18.2343 24.5772 17.977 23.794 18.4105C23.0108 18.8442 22.7425 19.8044 23.1948 20.5554C23.647 21.3064 24.6485 21.5638 25.4316 21.1303ZM26.8971 10.1114C27.8112 11.6293 27.2688 13.5703 25.6859 14.4467C24.1029 15.323 22.0786 14.8028 21.1645 13.2848C20.2506 11.7667 20.7928 9.82567 22.3758 8.94947C23.9587 8.07313 25.983 8.59332 26.8971 10.1114ZM25.4168 10.8725C25.869 11.6236 25.6006 12.5839 24.8175 13.0174C24.0343 13.4509 23.0328 13.1936 22.5807 12.4426C22.1284 11.6916 22.3966 10.7312 23.1799 10.2977C23.963 9.86409 24.9645 10.1215 25.4168 10.8725Z" fill="white" fill-opacity="0.8"/>
</g>
<defs>
<clipPath id="clip0_865_4616">
<rect width="36" height="36" rx="10" fill="white"/>
</clipPath>
</defs>
</svg>
